<svg xmlns="http://www.w3.org/2000/svg" viewBox="10 -8 780 573" width="780" height="573" font-family="Segoe UI, Helvetica, Arial, sans-serif"><rect x="10" y="-8" width="780" height="573" fill="#ffffff"/><rect x="30" y="90" width="300" height="60" rx="12" stroke="#ef4444" stroke-width="2" fill="#ffc9c9"/><polyline points="330.0,120.0 400.0,120.0" stroke="#1e1e1e" stroke-width="2" fill="none"/><polyline points="388.9,124.7 400.0,120.0 388.9,115.3" fill="none" stroke="#1e1e1e" stroke-width="2"/><rect x="400" y="90" width="370" height="60" rx="12" stroke="#ef4444" stroke-width="2" fill="#ffc9c9"/><rect x="30" y="175" width="300" height="60" rx="12" stroke="#22c55e" stroke-width="2" fill="#d3f9d8"/><polyline points="330.0,205.0 400.0,205.0" stroke="#1e1e1e" stroke-width="2" fill="none"/><polyline points="388.9,209.7 400.0,205.0 388.9,200.3" fill="none" stroke="#1e1e1e" stroke-width="2"/><rect x="400" y="175" width="370" height="60" rx="12" stroke="#22c55e" stroke-width="2" fill="#d3f9d8"/><rect x="30" y="260" width="300" height="60" rx="12" stroke="#4a9eed" stroke-width="2" fill="#a5d8ff"/><polyline points="330.0,290.0 400.0,290.0" stroke="#1e1e1e" stroke-width="2" fill="none"/><polyline points="388.9,294.7 400.0,290.0 388.9,285.3" fill="none" stroke="#1e1e1e" stroke-width="2"/><rect x="400" y="260" width="370" height="60" rx="12" stroke="#4a9eed" stroke-width="2" fill="#a5d8ff"/><rect x="30" y="345" width="300" height="60" rx="12" stroke="#f59e0b" stroke-width="2" fill="#fff3bf"/><polyline points="330.0,375.0 400.0,375.0" stroke="#1e1e1e" stroke-width="2" fill="none"/><polyline points="388.9,379.7 400.0,375.0 388.9,370.3" fill="none" stroke="#1e1e1e" stroke-width="2"/><rect x="400" y="345" width="370" height="60" rx="12" stroke="#f59e0b" stroke-width="2" fill="#fff3bf"/><rect x="30" y="430" width="300" height="60" rx="12" stroke="#8b5cf6" stroke-width="2" fill="#d0bfff"/><polyline points="330.0,460.0 400.0,460.0" stroke="#1e1e1e" stroke-width="2" fill="none"/><polyline points="388.9,464.7 400.0,460.0 388.9,455.3" fill="none" stroke="#1e1e1e" stroke-width="2"/><rect x="400" y="430" width="370" height="60" rx="12" stroke="#8b5cf6" stroke-width="2" fill="#d0bfff"/><text x="150.0" y="36.0" font-size="24" fill="#1e1e1e" text-anchor="start">The tools: line decides the belt</text><text x="90.0" y="76.0" font-size="18" fill="#757575" text-anchor="start">Profile says</text><text x="500.0" y="76.0" font-size="18" fill="#757575" text-anchor="start">Agent can use</text><text x="180.0" y="126.8" font-size="18" fill="#1e1e1e" text-anchor="middle">tools omitted  or  [&quot;*&quot;]</text><text x="585.0" y="126.8" font-size="18" fill="#1e1e1e" text-anchor="middle">EVERYTHING (+ all MCP tools)</text><text x="180.0" y="211.8" font-size="18" fill="#1e1e1e" text-anchor="middle">tools: []</text><text x="585.0" y="211.8" font-size="18" fill="#1e1e1e" text-anchor="middle">NOTHING</text><text x="180.0" y="296.8" font-size="18" fill="#1e1e1e" text-anchor="middle">[&quot;read&quot;, &quot;search&quot;]</text><text x="585.0" y="296.8" font-size="18" fill="#1e1e1e" text-anchor="middle">reviewer: inspect, never change</text><text x="180.0" y="381.8" font-size="18" fill="#1e1e1e" text-anchor="middle">[&quot;read&quot;, &quot;edit&quot;, &quot;execute&quot;]</text><text x="585.0" y="381.8" font-size="18" fill="#1e1e1e" text-anchor="middle">tester: write tests AND run them</text><text x="180.0" y="466.8" font-size="18" fill="#1e1e1e" text-anchor="middle">[&quot;read&quot;, &quot;edit&quot;]</text><text x="585.0" y="466.8" font-size="18" fill="#1e1e1e" text-anchor="middle">docs-writer: Markdown, no shell</text><text x="30.0" y="541.0" font-size="16" fill="#757575" text-anchor="start">Unrecognized tool names are ignored: the profile still loads.</text></svg>