<svg xmlns="http://www.w3.org/2000/svg" viewBox="0 -20 1026 422" width="1026" height="422" font-family="Segoe UI, Helvetica, Arial, sans-serif"><rect x="0" y="-20" width="1026" height="422" fill="#ffffff"/><rect x="20" y="60" width="230" height="60" rx="12" stroke="#1e1e1e" stroke-width="2" fill="#e9ecef"/><rect x="20" y="150" width="230" height="60" rx="12" stroke="#1971c2" stroke-width="2" fill="#a5d8ff"/><rect x="20" y="240" width="230" height="60" rx="12" stroke="#1e1e1e" stroke-width="2" fill="#e9ecef"/><rect x="330" y="140" width="200" height="80" rx="12" stroke="#f08c00" stroke-width="2" fill="#ffd8a8"/><rect x="620" y="140" width="200" height="80" rx="12" stroke="#1e1e1e" stroke-width="2" fill="#ffffff"/><polyline points="250.0,90.0 620.0,160.0" stroke="#868e96" stroke-width="2" fill="none" stroke-dasharray="8 6"/><polyline points="608.3,162.5 620.0,160.0 610.0,153.4" fill="none" stroke="#868e96" stroke-width="2"/><polyline points="250.0,180.0 330.0,180.0" stroke="#1971c2" stroke-width="2" fill="none"/><polyline points="318.9,184.7 330.0,180.0 318.9,175.3" fill="none" stroke="#1971c2" stroke-width="2"/><polyline points="530.0,180.0 620.0,180.0" stroke="#1971c2" stroke-width="2" fill="none"/><polyline points="608.9,184.7 620.0,180.0 608.9,175.3" fill="none" stroke="#1971c2" stroke-width="2"/><polyline points="250.0,270.0 620.0,200.0" stroke="#868e96" stroke-width="2" fill="none" stroke-dasharray="8 6"/><polyline points="610.0,206.6 620.0,200.0 608.3,197.5" fill="none" stroke="#868e96" stroke-width="2"/><text x="20.0" y="20.0" font-size="20" fill="#1e1e1e" text-anchor="start">Copilot cloud agent firewall: what it filters (GitHub Actions appliance only)</text><text x="135.0" y="86.0" font-size="16" fill="#1e1e1e" text-anchor="middle">setup steps</text><text x="135.0" y="106.0" font-size="16" fill="#1e1e1e" text-anchor="middle">(copilot-setup-steps.yml)</text><text x="135.0" y="176.0" font-size="16" fill="#1e1e1e" text-anchor="middle">agent&#x27;s Bash tool</text><text x="135.0" y="196.0" font-size="16" fill="#1e1e1e" text-anchor="middle">(pip, curl, python ...)</text><text x="135.0" y="276.0" font-size="16" fill="#1e1e1e" text-anchor="middle">MCP server processes</text><text x="430.0" y="167.8" font-size="14" fill="#1e1e1e" text-anchor="middle">FIREWALL</text><text x="430.0" y="185.2" font-size="14" fill="#1e1e1e" text-anchor="middle">GitHub hosts + recommended</text><text x="430.0" y="202.8" font-size="14" fill="#1e1e1e" text-anchor="middle">+ custom allowlist</text><text x="720.0" y="186.0" font-size="16" fill="#1e1e1e" text-anchor="middle">Internet</text><text x="270.0" y="84.0" font-size="14" fill="#e03131" text-anchor="start">NOT filtered</text><text x="270.0" y="289.0" font-size="14" fill="#e03131" text-anchor="start">NOT filtered</text><text x="20.0" y="344.0" font-size="14" fill="#495057" text-anchor="start">Blocked -&gt; warning in the PR body (new PR) or a PR comment (existing PR): blocked address + command.</text><text x="20.0" y="361.5" font-size="14" fill="#495057" text-anchor="start">Custom allowlist: domain = domain + subdomains · URL = that scheme + host + path prefix only.</text><text x="20.0" y="379.0" font-size="14" fill="#495057" text-anchor="start">Org: firewall / recommended list = Enabled · Disabled · Let repositories decide (default); repo custom rules allowed by default.</text></svg>